<svg width="11" height="11" viewBox="0 0 11 11" fill="none" xmlns="http://www.w3.org/2000/svg">
<g clip-path="url(#clip0_483_2237)">
<path d="M2.70792 10.9997C2.66057 10.9856 2.61293 10.9719 2.56586 10.9578C2.16293 10.8361 1.9144 10.5115 1.87536 10.0455C1.78496 8.96151 1.69829 7.87755 1.60875 6.79359C1.53385 5.88785 1.45693 4.9824 1.38117 4.07694C1.37686 4.02729 1.37572 3.97707 1.37256 3.91881H9.58736C9.56841 4.15816 9.55005 4.3955 9.53053 4.63284C9.47686 5.28173 9.42234 5.93061 9.36838 6.57949C9.30611 7.32825 9.24412 8.07701 9.18184 8.82576C9.14568 9.26084 9.11755 9.69649 9.07049 10.1304C9.0217 10.5827 8.73528 10.8841 8.28844 10.9828C8.27524 10.9856 8.26318 10.9943 8.25056 11H2.70792V10.9997ZM3.22336 7.13224C3.22336 7.19308 3.22336 7.25392 3.22336 7.31476C3.22336 7.99808 3.22307 8.68141 3.22336 9.36473C3.22336 9.53578 3.29482 9.64311 3.43401 9.68903C3.6679 9.76623 3.86707 9.61384 3.86736 9.35497C3.86794 7.87382 3.86736 6.39295 3.86736 4.9118C3.86736 4.88683 3.86851 4.86157 3.86535 4.83689C3.84871 4.70803 3.78069 4.61878 3.65642 4.57717C3.42626 4.50025 3.22393 4.65006 3.22336 4.90003C3.22221 5.64419 3.22307 6.38836 3.22307 7.13224H3.22336ZM5.15681 7.12162C5.15681 7.18963 5.15681 7.25765 5.15681 7.32567C5.15681 8.00526 5.15652 8.68514 5.15681 9.36473C5.15681 9.53578 5.22827 9.64311 5.36774 9.68903C5.60193 9.76623 5.80081 9.61384 5.80081 9.35497C5.80139 7.87382 5.80081 6.39295 5.80081 4.9118C5.80081 4.88683 5.80196 4.86157 5.7988 4.83689C5.78216 4.70803 5.71414 4.61878 5.58987 4.57717C5.35971 4.50025 5.15738 4.65035 5.15709 4.90003C5.15595 5.64046 5.15681 6.38118 5.15681 7.12162ZM7.73484 7.13252C7.73484 7.0823 7.73484 7.03236 7.73484 6.98214C7.73484 6.28418 7.7357 5.58622 7.73398 4.88826C7.73369 4.71004 7.612 4.57487 7.44555 4.5565C7.2857 4.539 7.13273 4.6492 7.09829 4.81192C7.08882 4.85669 7.09083 4.90433 7.09054 4.95083C7.09026 6.40759 7.09026 7.86435 7.09054 9.32082C7.09054 9.35669 7.08911 9.39257 7.09255 9.42815C7.10575 9.55902 7.18496 9.65287 7.31153 9.69104C7.54112 9.75991 7.73426 9.61326 7.73455 9.36559C7.7357 8.62114 7.73484 7.87669 7.73512 7.13224L7.73484 7.13252Z" fill="white"/>
<path d="M5.4897 3.22315C4.03638 3.22315 2.58335 3.22344 1.13003 3.22229C1.04107 3.22229 0.950666 3.2154 0.863708 3.19818C0.735998 3.17264 0.653345 3.0897 0.651336 2.9617C0.646457 2.67586 0.62895 2.38629 0.665685 2.10475C0.728823 1.62117 1.13176 1.29314 1.62165 1.29085C2.21945 1.28798 2.81725 1.28798 3.41476 1.29228C3.50086 1.29286 3.54104 1.27018 3.56543 1.1861C3.61623 1.01132 3.6765 0.838837 3.73648 0.66693C3.88141 0.254239 4.23067 0.00283609 4.66575 0.00140114C5.20615 -0.00060779 5.74684 -0.0003208 6.28724 0.00140114C6.72461 0.00283609 7.07417 0.250795 7.21967 0.661765C7.28281 0.840272 7.34365 1.01993 7.39847 1.20102C7.41999 1.27219 7.45386 1.29228 7.52733 1.29171C8.11422 1.28826 8.7014 1.28941 9.28829 1.28999C9.90217 1.29027 10.3117 1.69923 10.3128 2.31224C10.3131 2.49477 10.3134 2.67729 10.3128 2.85982C10.312 3.09515 10.1837 3.22315 9.94636 3.22315C8.4609 3.22344 6.97544 3.22315 5.48998 3.22315H5.4897ZM6.75016 1.28539C6.69534 1.12669 6.65057 0.972288 6.58887 0.825349C6.53922 0.706822 6.43476 0.646841 6.3059 0.646554C5.75488 0.644832 5.20357 0.644545 4.65255 0.646554C4.5191 0.647128 4.41492 0.711414 4.36441 0.834533C4.30529 0.979175 4.26138 1.12985 4.20829 1.28539H6.75016Z" fill="white"/>
</g>
<defs>
<clipPath id="clip0_483_2237">
<rect width="11" height="11" fill="white"/>
</clipPath>
</defs>
</svg>
