<svg height="27" viewBox="0 0 25 26" width="25" xmlns="http://www.w3.org/2000/svg"><path d="m19.316406 2.949219v1.636719h2.628906v.003906c.828126 0 1.582032.332031 2.125.867187.539063.53125.875 1.261719.875 2.074219h.003907v15.496094h-.003907c0 .808594-.335937 1.546875-.882812 2.082031-.539062.527344-1.289062.859375-2.117188.859375v.007812h-13.304687v-.007812c-.824219 0-1.582031-.332031-2.125-.863281-.539063-.53125-.875-1.265625-.875-2.078125h-.003906v-3.472656h-2.628907v-.003907c-.828124-.003906-1.582031-.332031-2.125-.867187-.539062-.53125-.8749995-1.261719-.87890575-2.074219h-.00390625v-13.660156h.00390625c.00390625-.8125.33984375-1.550781.88281275-2.085938.542969-.527343 1.289062-.8554685 2.117187-.85937475v-.00390625h13.304688v.00390625c.828125.00390625 1.582031.33203175 2.125.86718775.539062.53125.875 1.265625.875 2.074218h.007812zm-2.28125 1.636719v-1.640626h.003906c0-.191406-.085937-.367187-.21875-.5-.128906-.128906-.3125-.210937-.511718-.210937v.003906h-13.300782v-.003906c-.199218 0-.378906.082031-.511718.214844-.132813.128906-.214844.308593-.214844.5h.003906v13.660156h-.003906c0 .191406.082031.367187.214844.5.132812.128906.316406.210937.511718.210937v-.003906h2.628907v-9.78125h.003906c.003906-.816406.34375-1.554687.886719-2.085937.539062-.527344 1.289062-.859375 2.113281-.859375v-.003906zm5.632813 18.4375v-15.492188h.003906c0-.191406-.082031-.371094-.21875-.5-.128906-.128906-.3125-.210938-.507813-.210938v.003907h-13.304687v-.003907c-.195313 0-.378906.082032-.511719.210938-.132812.128906-.214844.308594-.214844.503906h.003907v15.492188h-.003907c0 .191406.082032.371094.21875.5.128907.128906.3125.214844.507813.214844v-.007813h13.304687v.007813c.195313 0 .378907-.085938.511719-.214844.132813-.128906.214844-.308594.214844-.5h-.003906zm0 0" fill="#828282" fill-rule="evenodd"/></svg>